<?xml version="1.0" encoding="UTF-8" standalone="no"?>
<!DOCTYPE svg  PUBLIC '-//W3C//DTD SVG 20010904//EN'  'http://www.w3.org/TR/2001/REC-SVG-20010904/DTD/svg10.dtd'>
<svg width="65.667in" xmlns="http://www.w3.org/2000/svg" viewBox="0 0 4728 1840" height="25.556in">
 <path id="logo" d="m3 315v-238-25c0-18.04-0.47-31.75 17-42.53 3.14-1.94 6.44-3.35 10-4.31 5.34-1.45 12.46-2.15 18-2.16h1195 2391 840 211c16.4 0.19 34 6.61 40.5 23 2 4.97 2.5 11.67 2.5 17v1302h-4725v-1030zm4717 5v-237-31c0-15.05 2.3-27.3-13-36.12-2.6-1.48-5.2-2.59-8-3.44-4.8-1.43-7.1-1.43-12-1.44h-1194-2389-839-221c-18.68 0.03-32.97 8.96-33 29v1297h4709v-1017zm-3891-106.28l53-16.39 23-7.19c2.57-0.74 7.6-2.49 10-2.49 0 0 22 6.33 22 6.33l44 13.36 33 10c4.1 1.32 10.3 2.22 13 5.66l-25 6.13-59 15.34-28 6.93-19-4.53-45-12s-30-7.99-30-7.99c-5.53-1.45-12.5-2.26-17-5.88l25-7.28zm308 0.61l53-16.35s24-7.4 24-7.4l11-2.79 12 3.19s24 7.3 24 7.3l49 15s27 8.72 27 8.72-32 8.87-32 8.87l-44 11.5s-24 6.26-24 6.26l-12 2.77-15-3.52-28-7.46-40-10.55-28-7.87 23-7.67zm-320 38.65l55 16.04 18 5.4 8.01 3.3 0.99 7.28v171l-36-11-56-18.35s-30-9.65-30-9.65v-175l40 10.98zm147 14.74l56-16.43s34-9.29 34-9.29v166l-1 7.5-8 3.91-18 5.92-62 20.67-33 10v-179l32-9.28zm158-16.14l55 16.14 32 9.28v180l-73-24-49-16v-175s35 9.58 35 9.58zm120 33.42l1-7.28 8-3.3 19-5.56 60-17.58 34-9.28v166l-1 7.49-8 3.84-20 6.67-64 21.33-29 9.67v-172zm1403 48v829h-13v-829h13zm-2225 120.28l21-6.56 11-2.11 17 4.97 42 13s31 9.28 31 9.28l21 7.14-74 19.42-23 6-17 3.39s-22-5.44-22-5.44l-45-11.95-27-7.05s-16-5.37-16-5.37l81-24.72zm254 17.14l57-17.44s28-8.34 28-8.34l13 3.02 21 6.32 53 16.3s27 8.72 27 8.72l-78 20.37c-7.41 1.88-29.94 8.94-36 8.44 0 0-23-5.66-23-5.66l-41-10.78s-28-7.5-28-7.5c-4.74-1.19-15.19-3.61-19-5.87l26-7.58zm421.6 80.58c-8.8-19.49-34.6-20.59-50.6-9.9-5.2 3.48-9.1 8.18-11.6 13.9-2 4.41-2.6 11.18-7.5 13.21-3.6 1.58-9.1 0.34-12.9 0l-27-2.93c-4.77-0.59-9.36-0.3-11.97-5.32-2.06-3.95 0.93-12.9 2.41-16.96 5.72-15.74 13.97-26.95 27.56-36.84 9.9-7.19 25-12.93 37-15.36 31-6.3 72.2-4.48 98 15.87 16.1 12.68 20.7 29.92 22.1 49.33l0.9 12v91c0.1 10.39 3.7 19.42 9.4 28 2.9 4.39 9.6 11.74 9.4 17-0.4 5.56-11.6 13.35-15.8 17l-17 14.68c-2.6 2.09-6.6 4.9-10 4.9-4-0.01-8.1-3.68-11-6.17-9.5-8.11-14.3-19.12-21-24.41-3.2 6.52-13.9 14.2-20 18.33-19.7 13.29-36.2 13.93-59 13.67-11.6-0.14-24.3-4.22-34-10.54-17.11-11.21-26.9-32.29-27-52.46v-13c0.22-18.12 9.62-38.24 23.04-50.27 12.36-11.06 25.16-16.91 40.96-21.31 14-3.89 54.6-9.41 69-9.42 0-9.81 0.7-25.13-3.4-34zm595.4 16c0-7.85-1.3-15.66-6.4-21.99-11.6-14.44-36.4-13.41-49.6-1.83-4.3 3.83-7.4 7.41-9.5 12.82-1.9 4.63-2.1 10.34-7.5 12.28-3.5 1.46-9.3 0.28-13 0l-26-2.86c-4.1-0.56-9.6-0.54-12-4.63-2.5-4.31 0.5-13.36 2-17.79 5.9-17.52 18-31.6 34-40.71 28.4-16.18 68.9-18.49 100-9.71 19 5.35 35.9 16.03 44.5 34.42 4.3 9.22 6.5 22.84 6.5 33v92c0 11.09 2.2 22.47 8.1 32 3.1 5.15 12.5 15.15 11.4 21-0.9 4.72-13.4 14-17.5 17.41-4.9 4.1-18.7 17.27-24 18.16-4.5 0.75-7.8-2.48-11-5.16-7-5.87-16.4-16.98-20-25.41-10.3 7.38-13 13.16-28 21.91-16.7 9.76-32.4 10.12-51 10.09-7.8-0.01-15.7-1.28-23-3.86-49.4-17.4-52.7-89.05-18-122.05 21.5-20.37 51.9-24.88 80-28.24l30-2.85v-18zm-410.6-48c4.9-8.16 9.7-13.91 17.6-19.25 20.6-13.82 53.3-13.7 73 1.77 9.7 7.64 16.2 19.29 21 30.48 7.8-14.92 12.8-24.56 28-33.55 29.3-17.36 76.1-8.73 91.5 23.55 8.3 17.31 6.5 36.4 6.5 55v90 60c-0.1 10.68-2.9 11.98-13 12h-31c-3.9 0-10.6 0.62-13.8-1.74-3.6-2.73-3.2-7.23-3.2-11.26v-73-71c-0.1-9.3-1.5-20.93-8.2-27.91-5.3-5.54-10.4-7.01-17.8-7.09-12.8-0.13-22.7 5.27-28.6 17-5.9 11.68-5.4 33.81-5.4 47v86 31c0 3.14 0 6.18-2.4 8.57-2.8 2.79-7 2.42-10.6 2.43h-31c-3.9 0-10.6 0.62-13.8-1.74-3.6-2.73-3.2-7.23-3.2-11.26v-73-65c-0.1-10.45-2.2-25.93-9.3-33.91-12-13.36-35.7-10.01-44.7 7.91-6.6 13.26-6 34.34-6 49v85 32c0 3.1 0 6.16-2.4 8.49-3 2.81-7.8 2.5-11.6 2.51h-34c-3.2-0.01-7.1 0.28-9.8-1.74-3.6-2.58-3.2-6.38-3.2-10.26v-178-44c0.2-9.13 3.9-9.98 12-10h22c6.2-0.08 15.5-2.8 20.8 1.56 3.6 2.96 3.2 7.25 3.2 11.44v24c3.5-3.65 4.9-8.67 7.4-13zm815.6-28.79c21.4-0.46 38 0.93 57 12.24 35.3 21.06 52.9 67.81 53 107.55v16c-0.1 38.63-19 84.09-53 104.4-6 3.55-13.4 7.18-20 9.16-11.2 3.34-21.4 4.57-33 4.44-48.2-0.57-80.9-35.3-92.4-80-11.9-46.38-7.1-112.39 28.4-147.96 7.2-7.16 16.9-13.39 26-17.78 9.2-4.46 18-6.32 28-8.05h6zm229 9.58c22.1-15.82 61.5-12.8 80.8 6.38 16.8 16.58 18.9 40.59 19.2 62.83l1 15v115 28c0 3.34-0.1 6.82-2.6 9.35-3 2.95-7.6 2.64-11.4 2.65h-35c-3.6-0.02-7.7 0.04-10.6-2.65-2.8-2.68-2.4-6.79-2.4-10.35v-73-68c-0.1-10.54-2.6-24.12-10.1-31.96-13.7-14.3-35.6-5.8-43.9 9.96-8.7 16.46-8 35.98-8 54v80 30c0 3.29 0 6.91-2.5 9.43-2.8 2.87-6.8 2.56-10.5 2.57h-31c-3.9 0-10.6 0.62-13.8-1.74-3.6-2.73-3.2-7.23-3.2-11.26v-177-37c0-3.78-0.7-11.71 1.7-14.57 2.5-2.84 6.9-2.42 10.3-2.43h18c11.1-0.02 27.8-5.93 28 11 0.1 7.79-0.9 23.27 1 30 4.6-13.09 13.6-28.07 25-36.21zm-503 43.21c-9.6-0.13-12-2.66-12-12v-18c0-4.16-0.7-12.51 1.7-15.77 2.8-3.62 7.3-3.22 11.3-3.23h116 25c3.2 0.06 6 0.1 8.4 2.57 2.9 3.05 2.6 7.53 2.6 11.43v18c-0.1 11.44-6.4 18.19-12.8 27l-9.9 14s-41.7 59-41.7 59-23.6 34-23.6 34h13c19.6 0.03 39.9 3.15 58 10.85 11.3 4.81 20.8 7.01 21 21.15v28c0 5.31 0 12.07-7 12.67-3.3 0.28-7.1-2.02-10-3.41l-15-6.21c-12.2-4.44-34.1-9.03-47-9.05-23.5-0.04-34.7-0.21-58 6.43 0 0-19 6.88-19 6.88-3.4 1.53-9.6 5.2-13 5.42-7.5 0.5-8.9-6.99-9-12.73v-27c0.3-22.23 12.6-32.67 24.3-50l40.3-57s30.4-43 30.4-43h-74zm-1416-17.58l19 5.7 9.01 3.58 0.99 7.3v171l-36-11-40-13.33-20-6.48s-18-5.86-18-5.86l-8.01-3.98-0.99-7.35v-167l94 27.42zm61 16.58l0.99-7.3 8.01-3.41 19-5.57 68-19.86 27-7.86v46l-1 17v104l-1.02 7.49-7.98 3.84s-19 6.34-19 6.34l-66 21.75-28 8.58v-171zm191-33.42l59 17.14 19 5.62 7.98 3.96 1.02 7.7v14l-1 15v141l-35-11-60-19.67s-18-6-18-6l-7.98-3.84-1.02-7.49v-167l36 10.58zm241 6.42v34 116l-1.02 7.44-7.98 3.87s-19 6.2-19 6.2l-52 17.18-42 13.31v-171l0.99-7.3 8.01-3.42 20-5.86 60-17.7 32-9.72 1 17zm1172.4 53c-3.9 15.52-3.4 29.27-3.4 45 0 17.84-0.1 36.67 4.7 54 5.3 18.83 14.6 32.91 36.3 29.7 17.9-2.64 25.2-21.1 28.2-36.7 4.6-23.66 3.8-67.34-1-91-3.6-17.97-10.4-32.51-31.2-32.84h-7c-17 3.47-22.8 16.61-26.6 31.84zm1064 225c-8.6 34.35-27 63.73-57.4 82.77-16.8 10.53-42.1 18.2-62 18.23h-22c-21.8-0.26-49.6-9.42-68-21.05-38.7-24.48-60.1-64.63-67.6-108.95-2.8-17.03-2.6-33.8-2.4-51 0.1-7.03 2.2-20.9 3.6-28 8.6-42.57 30.7-83 69.4-105.13 58-33.16 145.3-25.29 186.5 31.13 12.9 17.6 16.7 32.13 20.5 53h-31c-0.9-10.33-7.9-25.42-13.7-34-18.1-26.84-48.8-43.95-81.3-44h-9c-15.8 0.02-37.2 5.48-51 13.17-42.2 23.45-63.5 73.02-64.2 119.83v7 15c0.3 5.95 2 16.99 3.2 23 6.9 34.88 24.6 69.78 56 88.55 39.5 23.6 93 22.82 128-8.72 20.9-18.83 34.7-49.88 37-77.83h30c-0.4 7.93-2.7 19.2-4.6 27zm598.6-226v45h-27v-45h27zm87.1 14.04c12.7-13.12 30.8-14.24 47.9-14.04 3 0.04 14.3 0.67 16 2.74 1.2 1.44 1 4.48 1 6.26v16c-12.7-0.28-22-4.28-35 0.56-13.2 4.88-15.2 16.16-16.1 28.44 0 0-0.9 10-0.9 10v25h46v23h-46v209h-27v-160-33c0-3.03 0.5-11.42-1-13.69-1.9-2.76-6.1-2.3-9-2.31h-30v-23h40c0-23.62-3.6-56.63 14.1-74.96zm119.9-14.04v45h-27v-45h27zm496 0v321h-25v-44c-4.9 4.61-8.8 15.12-18 23.91-15.6 14.82-40.3 26.06-62 26.09h-14c-6.7-0.08-14.6-1.77-21-3.58-36.8-10.39-57.5-37.85-67.7-73.42-2.3-8.1-5.2-23.72-5.3-32v-25c0-34.03 17.7-76.28 47-94.95 7.3-4.68 13.7-7.94 22-10.7 8.9-2.97 22.6-5.12 32-5.34 4.9-0.11 6.5 0.37 11 0.82 15.5 1.55 24 3.64 38 10.95 12.2 6.38 21.5 15.44 28.6 27.22l6.4 12v-133h28zm-814 19v70h47v23h-47v162c0.1 18.07 8 25.97 26 26l21-1v24c-18.7 0-49.7 3.38-63.9-10.18-13.4-12.79-11.1-40.6-11.1-57.82v-143h-40v-23h40v-70h28zm-2558 37.43c-7.9 2.22-15.8 5.32-22 10.87-13.4 12.07-16.5 40.06-5.1 54.41 11.8 14.84 35.5 10.21 46.6-2.75 4-4.66 8.3-12.16 10.4-17.96 2.6-7.16 4.1-20.33 4.1-28v-20c-11.4 0-23 0.32-34 3.43zm592 0.2c-7.9 2.04-14.8 5.01-21 10.55-11.3 10.23-12.2 20.68-12 34.82 0.1 7.18 2.3 14.18 6.8 19.91 10.8 13.87 33.3 10.33 44.5-1.09 5-5.18 8-10.22 10.8-16.82 3.4-7.86 4.9-16.48 4.9-25v-26c-12.7 0-21.6 0.44-34 3.63zm1686 251.06c-15 12.19-37.7 19.28-57 19.31h-19c-15.8-0.19-35.9-6.95-49-15.75-25.2-16.94-38.3-46.13-43.1-75.25l-1.9-17v-25c0-21.45 9.1-52.45 21.4-70 9.2-13.14 21.2-24.42 35.6-31.63 11.9-5.97 23.9-8.23 37-9.54 30.4-3.04 60.8 6.12 81.8 29.18 19.1 20.94 30.2 57.91 30.2 85.99v14h-179c0.7 30.54 11.8 63.06 38 80.78 23.6 15.95 61.4 15.18 84-2.31 14-10.84 24.1-28.29 28-45.47h28c-4.7 23.22-16.4 47.6-35 62.69zm812 0.8c-15 11.65-37 18.48-56 18.51h-18c-17.6-0.08-38.8-7.55-53-17.92-26.1-19.11-41.6-58.23-42-90.08v-25c0-25.63 11.2-58.2 27.5-78 35.4-43.21 110.8-45.93 148.3-4 19.6 21.84 30.2 57.98 30.2 87v13h-179c0.3 30.4 12.7 64.5 39 81.62 23.2 15.07 59.8 13.83 82-2.54 14.7-10.84 25-28.4 29-46.08h28c-4.7 23.38-16.9 48.67-36 63.49zm-648-220.01c11-2.81 17-2.48 28-2.48v27c-8.8 0.03-20.6 1.43-29 4.02-8.2 2.53-13.9 5.25-21 9.98-6.1 4.08-8.9 6.67-14 12-26.5 27.82-22 61.89-22 97v85h-28v-232h26v34l1 20c11-27.51 29.8-47.04 59-54.52zm227 0.52v232h-27v-232h27zm207 0v232h-27v-232h27zm-641 20.08c-10.5-3.59-18.2-3.2-29-3.08-9.5 0.12-20.8 3.6-29 8.45-26.8 15.87-38.1 45.07-42 74.55h151c0-33.74-17.6-68.48-51-79.92zm838 14.96c-22.8-21.9-61-24.35-87-6.95-24 16.08-34.4 44.44-38 71.91h151c0-23.47-8.9-48.49-26-64.96zm113.9 66.96l-0.9 11c-0.1 15.58 2.4 35.38 7.8 50 10.6 28.61 31.7 51.62 64.2 52 15.6 0.18 28.9-0.78 43-8.32 28.7-15.3 43-51.4 43-82.68v-18c-0.1-10.35-3.8-28.33-7.5-38-5-13.17-11.9-24.36-22.5-33.83-17.4-15.57-40.5-19.02-63-16.88-42.7 7.07-60.9 45.18-64.1 84.71zm-3725.9-32.98l48-14.74c6.41-1.93 27.81-9.53 33-8.92l23 6.92 47 14.3 25 7.7c4.98 1.5 11.77 2.85 16 5.72l-26 6.63-52 13.52-21 5.56-15 2.95s-21-5.29-21-5.29l-49-12.95-41-11.42s33-9.98 33-9.98zm-29 38.55l65 19.01 19 5.56 7.98 3.42 1.02 7.44v128l-1 15v28l-36-11.67-58-19-19-6.33-8.01-3.7-0.99-7.3v-167s30 8.57 30 8.57zm125 35.43l1.02-7.44 7.98-3.42 19-5.56 94-27.58c2.41 8.5 0.01 17.36 0 26v25 116c0 2.04 0.26 5.63-0.99 7.3-1.35 1.8-5.85 2.98-8.01 3.7l-19 6.33-61 20.18-33 10.49v-171zm1379-37.88c16.8 8.19 10.4 34.13-9 32.78-12.1-0.84-20.1-13.77-14.6-24.9 2.9-5.73 7.6-8.17 13.6-9.5 3.5-0.23 6.8 0.06 10 1.62zm-690.2 201.36c-3.4 2.78-11.4 2.4-13.8-1.63-1.2-2.05-1-5.5-1-7.85v-142-34c0-2.96-0.2-6.17 2.3-8.26 2.9-2.37 10.9-1.79 14.7-1.74 8 0.11 9.9 1.96 10 10v55c10.5-10.52 15.6-16.29 31-18 8.8-1.22 8.2-1 17 0 20 2.79 35.3 18.9 42.2 37 10.8 28.35 8.6 68.84-9.2 94-13 18.37-27.8 22.25-49 22-4.6-0.06-7.7-0.53-12-2.09-11.4-4.08-17.4-9.72-25-18.91-1.5 4.37-3.8 13.7-7.2 16.48zm695.5-146.25c2 2.68 1.7 6.58 1.7 9.77v110 24c-0.1 2.92 0 5.38-2.3 7.57-2.9 2.76-7.1 2.42-10.7 2.43h-6c-9.7-0.14-10-3.36-10-12v-108-26c0-5.17-0.7-7.18 4.1-10.15 5.1-1.44 19.7-2.21 23.2 2.38zm-85.6 59.77l10-31 5.7-18c1-3.38 2.2-8.04 4.9-10.43 2.6-2.38 5.3-2.51 8.7-2.57h4c2.1 0.01 5-0.07 7 0.74 4.4 1.82 4.6 5.17 3.5 9.26l-6.6 20s-29.5 89-29.5 89l-7.4 22c-1 3.35-1.9 8.19-4.4 10.69-2.3 2.26-4.6 2.25-7.6 2.31h-11c-2.6 0-6.4 0.23-8.7-1.17-2.6-1.64-3.7-5.08-4.7-7.83l-6.3-18-29.6-87-8.7-26c-1.2-3.23-3.3-7.54-1.2-10.77 2.4-3.63 7.4-3.22 11.2-3.23h7c3 0.04 6.1 0.08 8.6 2.01 2.6 2.02 3.7 5.95 4.7 8.99l6.7 20 10.3 31 16.7 51 16.7-51zm-738.3 51c8.8 15.57 27.8 23.72 44.6 16.1 5.5-2.5 10.7-7.21 14.2-12.1 3.1-4.36 4.7-10.41 10.8-11.3 2.4-0.35 5.6 0.44 8 0.88 3.3 0.6 8.1 1.06 10.4 3.84 4.8 5.73-5.9 20.16-9.7 24.58-12.5 14.45-31.2 20.02-49.7 20-9.7-0.01-20.2-2.2-29-6.32-16.3-7.64-27.6-23.69-32.4-40.68-4.3-14.97-3.7-21.85-3.6-37 0.1-20.43 10.3-43.58 26-56.68 14-11.63 27.6-13.52 45-13.32 26.9 0.32 46.1 18.15 54 43 2.8 9 3.2 14.94 4.4 24 0.5 3.46 1.3 7.77-1 10.77-2.8 3.59-7.4 3.22-11.4 3.23h-87c0 10.88 0.8 21.27 6.4 31zm381.5-97.79c5.3 4.91 18.4 21.79 7.1 26.65-3.3 1.4-13.6 3.71-16.9 2.4-4.2-1.69-5.2-6.28-9.6-10.97-6-6.49-14.7-10.07-23.5-10.28-23.3-0.53-33.7 17.09-23.7 28.95 6.1 7.11 15.2 7.74 23.7 9.44 15.5 3.1 34.2 4.57 47 14.5 19.4 15.08 20.3 48.37 1.9 64.64-12.8 11.31-32.3 14.65-48.9 14.46-17.2-0.21-39.2-6.45-50.7-20-4.5-5.39-15.4-21.78-4.3-25.86 4.2-1.53 15-4.04 18.7-1.29 3.9 2.85 2.8 7.73 11.3 14.82 7.7 6.41 17.2 9.18 27 9.58 7.9 0.33 17.8-1.61 24-6.64 8.9-7.17 10.1-19.67 1-27.22-6.2-5.14-18.1-7.26-26-8.64-13.7-2.4-29.4-4.95-41-12.97-20.2-13.9-21.2-45.06-4-61.69 9.6-9.21 21.4-11.77 34-13.67 17.4-2.12 39.7 1.55 52.9 13.79zm156.2 19.79c4.5 9.81 7.9 24.24 7.9 35 0 2.91 0.4 7.27-1.6 9.57-2.4 2.81-7 2.42-10.4 2.43h-78c-2.4 0-6.6-0.33-8.3 1.6-1.5 1.64-0.9 4.39-0.8 6.4 0.4 6.42 1.2 11.94 3.6 18 5.7 14.65 19.7 24.37 35.5 23.99 8.2-0.2 16.1-4.22 21.8-10.08 5.4-5.57 6.9-11.02 9.6-13.48 4.2-3.94 17.9-2.28 22.4 0.71 6.9 4.63-2.4 18.33-6.1 22.86-14.1 17.41-31.9 23.25-53.7 23-5.7-0.07-13.6-1.31-19-3.03-8.2-2.62-17.8-7.95-23.9-14.06-28.4-28.3-27.7-88.72-0.7-117.74 10.6-11.32 21.8-15.99 36.6-18.73 27.6-3.54 53.3 7.21 65.1 33.56zm420.6 2c1.1 3.32 2.8 8.57 3.1 12 1.4 15.7-22 8.12-22.5 7.83-3.7-2.32-4.4-9.66-6.2-13.83-3.8-8.87-11.5-16.27-21.1-18.47-14.9-3.43-27 7.83-32.4 20.47-8.7 18.43-8.4 48.72 0 67 5.1 10.51 14.8 20.58 27.4 19.79 10.4-0.64 19.2-7.97 24.1-16.79 5.5-9.88 2.2-17.82 14.9-18 3.8-0.05 10.8-0.57 13.8 1.74 3.5 2.69 2.6 6.54 1.7 10.26-1.9 7.56-5.3 15.53-9.6 22-10.7 15.95-28.7 24.7-47.9 23.96-5.2-0.2-15.1-1.92-20-3.66-26-9.2-39-40.45-39-66.3v-15c0.2-19.85 9.5-44.11 25-56.88 9-7.34 17.9-9.88 29-11.69 26.2-3.24 50.8 10.1 59.7 35.57zm55.3 78c9.2 14.71 28 21.7 44 13.72 6.1-3.05 9.5-6.24 13.5-11.72 2.2-2.98 4.5-8.28 7.6-9.99 3.3-1.83 9.3-0.72 12.9 0 3.3 0.64 7.2 1.11 9.2 4.13 3.3 4.9-3.4 14.77-6.2 18.86-11.5 16.19-30.4 24.77-50 25-18.4 0.21-35.7-4.42-48.9-18.04-32.5-33.5-26.1-108.03 17.9-129.99 10.5-5.24 21.5-6.1 33-5.97 27.2 0.32 46.1 18.02 54.3 43 2.4 7.33 4.6 18.31 4.7 26 0 3.35 0.4 7.88-2.4 10.26-2.4 2.05-6.6 1.74-9.6 1.74h-88c0 11 2 23.56 8 33zm206.7-99.56c5.8 5.56 18.6 21.59 6.3 26.68-3.1 1.27-12.9 3.27-16 2.13-4.2-1.6-5.3-6.28-10.1-11.21-6-6.24-14.2-9.83-22.9-10.03-12.8-0.29-31.6 6.67-27.2 22.99 0.5 2.06 1.4 4.15 2.7 5.82 5.6 6.86 16.4 8.14 24.5 9.6 13.6 2.45 34 5.24 45 13.34 21.7 15.98 22.6 49.67 2 66.92-12.3 10.24-31.4 13.5-47 13.32-18.6-0.22-39.4-6.33-51.7-21-4.6-5.58-14.3-19.68-4.3-24.57 3.4-1.67 14.6-3.97 18-2.24 5.4 2.77 4.4 9.49 13 16.28 10.7 8.43 28.1 10.94 41 7.09 8.2-2.46 15.2-7.64 16.7-16.56 1.8-10.89-6.1-17.66-15.7-20.56-17.7-5.39-40.6-5.4-56-15.8-24.1-16.26-22.8-53.02 2-68.01 9.1-5.48 16.8-6.67 27-8.21 17.2-2.1 39.8 1.59 52.7 14.02zm-1374.9 116.56c-1.5 5.71-3.7 19.18-8.8 21.98-2.1 1.12-4.7 1-7 1.02h-6c-3-0.06-5.4-0.08-7.72-2.31-2.65-2.5-3.58-7.25-4.57-10.69l-6.29-22s-25.42-89-25.42-89l-5.33-19c-0.62-2.99-0.97-6.19 1.64-8.4 2.24-1.89 5.93-1.59 8.69-1.6h6c10.07 0.14 10.94 3.29 13.42 12l3.87 14 7.42 27 13.29 47s20.6-77 20.6-77c1.6-5.64 3.4-19.1 8.5-21.98 1.8-1.01 3.9-0.98 5.9-1.02 3.2-0.05 9.2-0.35 11.9 1.17 3 1.76 3.6 4.73 4.5 7.83l5.2 18s21.4 74 21.4 74l12.9-45 8-28c1.4-5 5.4-22.48 8.5-25.35 2.7-2.48 6.2-2.6 9.6-2.65 3.1-0.04 8.3-0.45 10.7 1.6 2.7 2.28 2.1 5.39 1.4 8.4l-5.5 20s-24.8 90-24.8 90l-6.1 22c-0.9 3.03-1.7 7.16-4.3 9.26-2.1 1.79-4.8 1.7-7.4 1.74-3.4 0.04-10.1 0.4-12.9-1.17-3.4-1.9-4.1-5.41-5.1-8.83l-5.1-18s-20.9-71-20.9-71l-20.2 76zm778.2-129.56c5.9-0.94 13.5-1.02 16.1 5.58 0.8 2.08 0.9 4.76 0.9 6.98 0 3.3-0.2 8.03-2.6 10.57-2.4 2.66-14.5 3.7-19.4 5.95-5.8 2.65-12.3 9.25-15.9 14.48-10.1 14.74-9.1 26.24-9.1 43v38c0 5.32 1.4 22.01-2.4 25.26-2.3 1.92-5.8 1.72-8.6 1.74h-6c-10.3-0.02-11-2.06-11-12v-104-22c0-2.41 0-4.73 1.6-6.72 2.5-3.13 6.8-3.23 10.4-3.17h7c9.8 1.92 5.6 11.6 8 19.89 5-13.02 17.6-21.44 31-23.56zm-462 22.6c-13.8 7.82-20.9 24.55-21 39.96v21c0 5.42 1 12.79 2.4 18 4.8 16.86 18.2 29.53 36.6 26.99 12.4-1.71 19.2-11.02 23.5-21.99 6.8-17.32 6-48.8-0.9-66-5.3-12.91-14.7-22.85-29.6-21.7-4.3 0.81-7.1 1.54-11 3.74zm-108.2 7.01c-12.4-13.83-34-13.23-46.6 0-5.2 5.54-9.1 13.59-10.7 20.95-0.6 2.13-1.8 6.34 0 7.98 1.6 1.25 5.6 1.02 7.5 1.02h60c-0.2-10.63-2.9-21.91-10.2-29.95zm461.7 19.95c-1.9-10.69-7.1-19.98-16.5-25.87-4.4-2.77-9.8-4.01-15-4.11-21.6-0.43-35.8 19.92-36 39.98h45l24-1-1.5-9zm552.9-17c-9.8-13.56-28.4-17.13-42.4-8.04-13.4 8.7-15.5 20.04-19 34.04l24 1h45c0-9.72-1.8-18.92-7.6-27zm2477.6 546v442h-4725v-442h4725zm-4717 8v426h4709v-426h-4709zm556.32 277c10.4 22.4 35.72 29.7 58.68 30 14.82 0.2 31.37-3.7 43-13.3 15.35-12.7 20.25-34.6 4.91-49.5-8.14-7.9-21.05-12.2-31.91-14.6 0 0-29-7.2-29-7.2-23.99-6-52.71-10.3-60.24-38.4-1.28-4.8-1.86-10.1-1.75-15 0.18-8 2.2-15.9 5.75-23 11.07-22.1 30.71-30.4 54.24-32.1 4.43-0.3 5.94-1.1 11-0.9 22.5 0.9 46.35 7.7 60.88 26 6.24 7.8 9.55 16.2 11.2 26 0.45 2.7 1.8 8-0.68 10-1.75 1.4-8.05 1-10.4 1-9.66-0.2-5.11-3.3-9.62-15-3.11-8.1-6.95-13.1-13.38-18.9-20.84-18.8-70.55-18.1-85.64 7.9-3.76 6.5-4.44 12.7-4.36 20 0.17 14.5 8.68 23.1 22 27.6l53 13.5c13.56 3.4 27.71 7.3 39 15.9 22.3 17 23.22 50.8 6.48 72-6.52 8.3-15.81 13.7-25.48 17.6-9.93 3.9-30.29 6.6-41 6.4l-9-0.9c-28.47-2-56.64-11.4-66.92-41.1-3.08-8.9-4.08-18.6-4.08-28l18-1c2.04 7.2 0.41 14.4 5.32 25zm332.68-160v202h-17v-202h17zm279 0v28h-17v-28h17zm542.6 177l14-35s38.6-96 38.6-96l13.8-34c4.3-10.8 3.9-11.9 11-12h9c6.8 0.1 6.2 1 10.6 12l13.4 34 40.8 104s20.2 52 20.2 52h-12c-9.5 0-8 0.1-13.8-15l-12.6-32c-1.2-3-4.4-12.6-6.3-14.4-2.1-2-5.6-1.6-8.3-1.6h-85l-18.2 49c-4.9 12.6-3.8 13.9-12.8 14h-12c1.4-7.7 6.5-17.6 9.6-25zm433.4-177v53l1 29c5.9-11.3 10.4-17.5 22-23.7 15.5-8.3 42.9-7.9 58 1.2 6.6 3.9 11.4 9.6 14.7 16.5 6.8 14 5.3 30.9 5.3 46v80h-17v-95c0-21.4-10.6-39.7-34-40h-5c-19.7 0.1-35.9 13.3-41.6 32-5.3 17.7-3.4 55-3.4 75v28h-17v-202h17zm150 0v28h-17v-28h17zm734.6 179l15-37s38.6-96 38.6-96l13.8-34c4.3-10.8 3.9-11.9 11-12h9c6.8 0.1 6.2 1 10.6 12l13.4 34 40.8 104s20.2 52 20.2 52h-12c-9.5 0-8 0.1-13.8-15l-13-33c-1.1-2.7-4.3-11.9-5.9-13.4-2.1-2-5.7-1.6-8.3-1.6h-85c-1.1 7-4.4 13.4-6.9 20l-11.2 29c-4.9 11.7-3.3 13.9-12.9 14h-12c1.1-6 6.1-16.8 8.6-23zm773.4-179v28h-17v-28h17zm-2709 12c2.4 0 5.2-0.2 6.4 2.3 0.9 1.9 0.6 10.2 0.6 12.7v29h29v15h-29v100c0 2.4-0.1 5.7 0.6 8 3.6 12.5 18.5 10 28.4 10v14c-12 0-28.9 3.5-38.8-5.4-9.2-8.2-7.2-24.4-7.2-35.6v-91h-26v-15h26v-44h10zm1254 0c2.4 0 5.2-0.2 6.4 2.3 0.9 1.9 0.6 10.2 0.6 12.7v29h29v15h-29v101c0 11.2 4.4 16.9 16 17h13v14c-12.3 0-29.9 3.6-39.7-6.3-8.3-8.5-6.3-25.6-6.3-36.7v-89h-26v-15h26v-44h10zm366 0c2.4 0 5.2-0.2 6.4 2.3 0.9 1.9 0.6 10.2 0.6 12.7v29h29v15h-29v101c0 11.2 4.4 16.9 16 17h13v14c-11.7 0-29.3 3.2-38.8-5.4-9.1-8.2-7.2-24.5-7.2-35.6v-91h-26v-15h26v-44h10zm1292 0v44h29v15h-29v101c0.1 11 4.6 16.9 16 17h13v14c-12.2 0-30 3.5-39.7-6.3-8.2-8.3-6.3-24.8-6.3-35.7v-90h-26v-15h26v-44h17zm-2219.4 21l-9 23-16.6 42-9 25h80l-14-38s-18-48-18-48l-7-18-6.4 14zm1309.2 25s-15.8 40-15.8 40l-9 25h80l-11-30s-21.4-57-21.4-57l-6.6-17-16.2 39zm-2315.8-5.7c20.7 1 38.46 7.9 51.49 24.7 13.93 18 15.76 37.2 15.51 59-0.35 29.6-18.65 58.8-48 66.8-5.32 1.5-16.66 3.4-22 3.1-16.45-0.9-32.93-6.2-44.83-18.1-28.73-28.6-29.2-87.6-1-116.7 12.99-13.4 25.38-16.1 42.83-18.8 2.37-0.2 3.55-0.3 6 0zm484 0c21.5 1.4 39 7.5 52.2 25.7 13.5 18.5 15 36 14.8 58-0.4 31.3-20.7 61.2-52 68-2.9 0.6-15.4 2-18 1.8-17-1.2-32.4-5.7-45-17.9-28.8-28-28.8-88.3-0.9-116.9 13.3-13.6 26.2-16.1 43.9-18.7 2-0.1 3-0.3 5 0zm116.5 18.7c4.1-5.3 9.6-9.6 15.5-12.7 10.3-5.5 21.6-6.6 33-5.5 19.1 1.9 34.4 7.3 41.4 27.2 5 13.7 3.6 31.4 3.6 46v76h-17v-95c0-21.4-10.6-39.7-34-39.8-3.6-0.2-8.6-0.4-12 0-18.1 3.5-31 17.3-35.5 34.8-3.2 12.5-2.5 27.1-2.5 40v60h-17v-146h17v26l7.5-11zm132.9 85c1.7 1.4 2.4 6.7 3.1 9 1.9 5.8 4.2 9.6 8.5 14 10.3 10.2 21.2 12 35 12 15.3 0 37.2-8 38-26 0.8-18.3-15.1-24.1-30-27.4-19.4-4.4-51.8-8.5-61.9-27.6-2.4-4.7-3-8.8-3.7-14-0.5-4.3 0.4-9.8 1.5-14 7.5-27.2 46.5-33.5 70.1-27.8 5.1 1.3 12.8 4.6 17 7.6 14.8 10.6 16.1 20.9 19 37.2-3.1 0-14.2 0.6-16.3-1-1.6-1.3-2.3-6.7-3.1-9-1.6-4.9-3.9-8.3-7.6-11.9-9.1-8.8-19-10.2-31-10.1-9 0-18 2.4-24.9 8.5-8.7 7.6-10.5 21.6-1.8 30 6.5 6.2 16.2 9 24.7 10.9 21.6 4.9 54.1 7.5 62.9 31.6 1.6 4.2 2 7.5 2.1 12 0 4.5 0.2 8.6-1 13-6.5 22-28.1 30.4-49 32.1l-8 0.8-7-0.7-8-0.6c-19.7-3.1-35.2-14.2-41.6-33.6-2-5.9-2.4-9.9-2.4-16 3 0 13.4-0.6 15.4 1zm566.6 38.5c-23.3 17.9-59.4 13.2-81-5-15.8-13.3-21.3-33.8-23.2-53.5l-0.7-7 0.8-8c1.7-23.1 10.6-45.8 31.1-58.5 23-14.4 60.8-14.3 80.8 5.7 9 9 13.5 21.5 15.2 33.8h-10c-13-0.1-5-6.2-16.3-20-9.8-11.8-18.8-15.1-33.7-15-24.5 0.1-41.8 18.2-47.8 41-8.2 30.4 1.7 70.7 34.8 81.2 6.1 2 9.7 1.9 16 1.8 13.5-0.2 26.5-8.7 33.5-20 2.3-3.7 4.6-8.8 5.7-13 0.6-2 0.9-5.7 2.5-7 1.4-1.1 3.7-1 5.3-1h11c-2.4 17.4-9.8 33.6-24 44.5zm423-1.8c-19.2 15.9-57.4 17.4-78 3.5-20.5-13.7-27.4-34.8-29.1-58.2-0.3-4.4-1.1-6.1-0.8-11 1.2-18.4 5.1-38.4 17.2-53 5.1-6.1 11.6-11.6 18.7-15.2 22.4-11.2 55-8.2 72.9 10.2 16.7 17.2 21.1 42 21.1 65h-113c2.5 14.1 1.9 21.8 9.9 35 6.6 10.8 18.3 19.9 31.1 21.8h11c7 0.1 13.8-1.5 20-5 8-4.5 13-9.9 17.3-17.8 1.5-2.7 4.9-11.8 6.4-13 2.1-1.6 13.1-1 16.3-1-2.8 14-9.8 29.4-21 38.7zm148.7-3.1c-20.6 20.3-57.5 21-80.7 4.6-19.7-13.8-26.9-34.3-29.2-57.2l-0.8-8 0.8-8c2.4-23.2 10.2-45.6 31.2-58.5 23.2-14.3 60.7-14.4 80.8 5.7 9 9 13.5 21.5 15.2 33.8-3.2 0-14.2 0.6-16.4-1-1.9-1.4-3.7-8.4-4.9-11-2.8-5.8-6.9-10.6-11.7-14.8-8.6-7.5-18.2-8.3-29-8.2-18.7 0.2-33.2 12.9-41.2 29-12.6 25-9.3 61.9 11.2 82 16.7 16.2 43.7 18.2 61 1.9 9.3-8.8 12.7-17.7 15-29.9h17c-2 14.4-7.7 29.2-18.3 39.6zm572.7-33.6c1.7 1.4 2.4 6.7 3.1 9 1.9 5.8 4.2 9.6 8.5 14 10 10 21.5 12.1 35 12 15.4-0.1 37-8 38-26 0.9-18.2-15.2-24.1-30-27.4-18.8-4.2-51.2-8.6-61.5-26.6-2.7-4.7-3.4-9.7-4.1-15-0.5-4.3 0.4-9.8 1.5-14 3.4-12.1 12.9-19.8 24.1-24.4 18.5-7.5 46.3-7.8 63 4.2 8.1 5.8 14.4 14.4 16.8 24.2l2.2 12c-3.2 0.9-14.5 2.3-16.8-0.6-1.1-1.2-1.7-5.5-2.2-7.4-1.2-4-2.7-6.8-5.3-10-7.4-8.9-17.3-12.9-28.7-13-14.3-0.2-32 2.9-36.4 19-1.2 4-1.4 8 0 12 4.6 12.9 21.7 16.7 33.4 19.4 21.1 4.7 51.2 7.4 59.2 31.6 2 5.9 1.9 9.9 1.8 16-0.2 16-10.9 27.9-25 33.9-19.2 8.7-47.1 9.3-66 0-11.8-6.1-20.2-16.1-23.8-28.9l-3.2-15c3.1 0 14.3-0.6 16.4 1zm135 0c1.7 1.4 2.4 6.7 3.1 9 1.9 5.8 4.2 9.6 8.5 14 10 10 21.5 12.1 35 12 15.3-0.1 37.2-8 38-26 0.8-18.1-15.1-24.1-30-27.4-19.3-4.4-51.9-8.6-61.9-27.6-2.4-4.7-3-8.8-3.7-14-0.5-4.3 0.4-9.8 1.5-14 7.5-27.1 46.6-33.7 70.1-27.6 5.1 1.3 12.7 4.4 17 7.4 14.8 10.4 16.1 21 19 37.2-3.1 0-14.2 0.6-16.3-1-1.7-1.4-2.1-5.8-2.7-8-1.3-4.1-3.4-8.5-6.4-11.6-9.1-9.6-20-11.5-32.6-11.4-8.5 0-18.4 2.5-24.9 8.3-9.2 8.3-10.4 21.9-1.1 30.5 20.7 19.2 74.4 8 86.9 42.2 1.6 4.2 2 7.5 2.1 12 0.1 7.8 0 12.8-3.7 20-9 18-28.9 23.3-47.3 25.2-3.5 0.3-5.2 0.9-9 0.7-12.3-0.7-25.5-3-36-9.9-13.7-8.9-21-25-21-41 3 0 13.4-0.6 15.4 1zm188.6-103.7c20.7 1 38.5 7.9 51.5 24.7 13.9 18 15.7 37.2 15.5 59-0.4 29.6-18.6 58.8-48 66.8-5.3 1.5-16.7 3.4-22 3.1-16.4-0.9-32.9-6.2-44.8-18.1-28.8-28.6-29.2-87.6-1-116.7 13-13.4 25.4-16.1 42.8-18.8 2.4-0.2 3.6-0.3 6 0zm191 142.1c-20.4 15.9-54.3 14.2-75 0-19.8-13.8-26.9-34.6-29.2-57.4l-0.8-8 0.8-8c2.5-24.6 10.8-46.4 33.2-59.7 22.5-13.3 59.8-12.3 78.9 6.8 8.8 8.8 13.5 21.8 15.1 33.9h-10c-1.9 0-4.8 0.2-6.4-1-1.9-1.4-2.8-5.8-3.7-8-1.5-4.1-4.3-8.7-7.1-12-9.8-11.5-19.3-14.2-33.8-14-20.4 0.2-34.8 13.2-43.2 31-11.8 25.1-7.4 61.5 13.2 80.9 18.9 17.8 48.1 16.2 64.7-3.9 6-7.3 8.6-15.8 10.3-25h17c-2.5 17.5-9.7 33.4-24 44.4zm98-108.4c8.6-28 37.8-35.8 64-33.2 13.1 1.4 25.2 3 34.8 13.3 8.6 9.1 11.1 22.9 11.2 34.9v74c0.2 11.8 6.5 12 16 12v14c-10.2 0.1-23.5 3.4-29.3-8-1.1-2.2-1.7-4.6-2.1-7-0.7-4-0.6-6.1-0.6-10-7.8 7.2-10.5 17.2-27 24.7-17.8 8.1-50.4 6.8-64.7-7.9-7.5-7.7-10.4-17.3-11.1-27.8-0.2-3.1 0.5-6.8 0.8-10 3.9-31 41.4-34.4 66-36.8 15-1.5 33.5-0.1 34.6-20.2 0.1-2.1-0.5-6.9-0.9-9-4.1-20.5-24.9-22.2-41.7-22-20.2 0.2-34.8 13.6-35 34h-17c0-5.8 0.3-9.4 2-15zm318 104.8c-20.9 19.1-61.8 19.8-84 2.7-17.4-13.5-23.6-34.5-25.1-55.5-0.3-4.4-1.1-6.1-0.8-11 1.3-20.4 6-40.6 20.2-56.1 22-23.8 65.7-25.3 88.6-1.9 16.5 17 21.1 42.2 21.1 65h-113c2.5 13.9 1.5 20.7 9.4 34 10.2 17.1 23.4 23.2 42.6 23 7.4-0.1 14.6-2 21-5.7 6.6-3.9 13.5-11.5 17-18.3 1.4-2.6 3.9-10.6 5.7-12 2.1-1.6 13.1-1 16.3-1-2.7 13.3-8.8 27.5-19 36.8zm-2184-136.8v17c-5.6 0-13.7 1-19 2.8-4 1.3-10.6 4.4-14 6.9-25 18.6-22 43.9-22 71.3v50h-17v-146h16l1 35c8.8-25.1 29.4-36.8 55-37zm-1032 2v90c0.22 18.2 4.38 37.2 24 43.2 3.91 1.2 7.92 1.8 12 1.8h4c5.57 0 8.63-0.2 14-2.1 7.2-2.6 12.5-7 17.2-12.9 16.1-20.4 12.8-47.6 12.8-72v-21-27h17v146h-15v-27c-5.5 5.5-8.3 15.6-24 24.1-10.7 5.8-23.14 7.3-35 6.1-18.43-2-32.64-8.5-39.46-27.2-5.25-14.4-4.54-33.7-4.54-49v-73h17zm230 0v146h-17v-146h17zm1126 0v146h-17v-146h17zm1508 0v146h-17v-146h17zm-3072 98c6.32 19.9 21.97 36.7 43.97 37 15.23 0.2 26.46-1.7 37.83-13.2 30.56-30.8 22.08-110.7-32.83-110.6h-10c-38.66 7.4-49.44 53.9-38.97 86.8zm483.97 0c6.6 20.8 22.2 36.7 45 37 14.3 0.2 25-1.9 36-12.2 31.2-29.1 23.8-111.7-32-111.6h-10c-38.6 7.4-49.4 53.9-39 86.8zm1278.7-73c-17.1-19.5-48.3-18.8-65.6 0-11.8 12.7-12.2 22.6-16.1 38h96c-2.8-15.4-3.2-25.3-14.3-38zm1005.3 73c6.4 19.9 22 36.7 44 37 15.2 0.2 26.5-1.7 37.8-13.2 30.6-30.8 22.1-110.7-32.8-110.6h-10c-38.7 7.4-49.4 53.9-39 86.8zm657.6-45c-1.6-9.7-5.8-19.4-12.1-27-17.3-20.9-49.7-20-67.3 0-11 12.5-11.4 22.1-15.2 37h96l-1.4-10zm-1230.6 7v16h-70v-16h70zm993 11.1c-15.6 4.5-37.8 4-54 10.4-11.7 4.5-20.8 12.9-19.7 26.5 2.9 33 45.9 32.3 66.7 17.2 20.8-15 18-36.7 18-59.2l-11 5.1z" stroke-width="0" fill="#fff"/>
</svg>
